<svg xmlns="http://www.w3.org/2000/svg" xmlns:xlink="http://www.w3.org/1999/xlink" version="1.1" id="Layer_1" x="0px" y="0px" width="92px" height="92px" viewBox="0 0 92 92" xml:space="preserve"><path id="XMLID_546_" d="M84 46c0 2.2-1.8 4-4 4H21.6l18.1 18.2c1.6 1.6 1.6 4.1 0 5.7-.7.7-1.7 1.1-2.8 1.1-1 0-2.1-.4-2.8-1.2l-24.9-25c-1.6-1.6-1.6-4.1 0-5.6l24.9-25c1.6-1.6 4.1-1.6 5.7 0 1.6 1.6 1.6 4.1 0 5.7L21.6 42H80c2.2 0 4 1.8 4 4z" style="fill: rgb(255, 255, 255);"></path><metadata><rdf:rdf xmlns:rdf="http://www.w3.org/1999/02/22-rdf-syntax-ns#" xmlns:rdfs="http://www.w3.org/2000/01/rdf-schema#" xmlns:dc="http://purl.org/dc/elements/1.1/"><rdf:description about="https://iconscout.com/legal#licenses" dc:title="arrow,thin,left" dc:description="arrow,thin,left" dc:publisher="Iconscout" dc:date="2017-09-24" dc:format="image/svg+xml" dc:language="en"><dc:creator><rdf:bag><rdf:li>Amit Jakhu</rdf:li></rdf:bag></dc:creator></rdf:description></rdf:rdf></metadata></svg>