<?xml version="1.0" encoding="UTF-8"?>
<svg width="76px" height="58px" viewBox="0 0 76 58" version="1.1" xmlns="http://www.w3.org/2000/svg" xmlns:xlink="http://www.w3.org/1999/xlink">
    <!-- Generator: Sketch 46.2 (44496) - http://www.bohemiancoding.com/sketch -->
    <title>undefined (4)</title>
    <desc>Created with Sketch.</desc>
    <defs></defs>
    <g id="Page-1" stroke="none" stroke-width="1" fill="none" fill-rule="evenodd">
        <g id="Artboard-3" transform="translate(-182.000000, -243.000000)" fill-rule="nonzero" fill="#000000">
            <g id="undefined-(4)" transform="translate(182.000000, 243.000000)">
                <path d="M76,29 C76,31.2 74.2,33 72,33 L13.6,33 L31.7,51.2 C33.3,52.8 33.3,55.3 31.7,56.9 C31,57.6 30,58 28.9,58 C27.9,58 26.8,57.6 26.1,56.8 L1.2,31.8 C-0.4,30.2 -0.4,27.7 1.2,26.2 L26.1,1.2 C27.7,-0.4 30.2,-0.4 31.8,1.2 C33.4,2.8 33.4,5.3 31.8,6.9 L13.6,25 L72,25 C74.2,25 76,26.8 76,29 Z" id="XMLID_546_"></path>
            </g>
        </g>
    </g>
</svg>