<svg xmlns="http://www.w3.org/2000/svg" xmlns:xlink="http://www.w3.org/1999/xlink" width="20px" height="20px" viewBox="0 0 20 20" version="1.1"><title>profile [#1336]</title><g id="Page-1" stroke="none" stroke-width="1" fill="none" fill-rule="evenodd"><g id="Dribbble-Light-Preview" transform="translate(-380.000000, -2159.000000)" fill="#000" style="fill: rgb(255, 255, 255);"><g id="icons" transform="translate(56.000000, 160.000000)" style="fill: rgb(255, 255, 255);"><path d="M334 2011c3.785 0 6.958 2.214 7.784 6h-15.568c.826-3.786 3.999-6 7.784-6m-4-6c0-2.206 1.794-4 4-4s4 1.794 4 4-1.794 4-4 4-4-1.794-4-4m7.758 4.673A5.983 5.983 0 0 0 340 2005a6 6 0 1 0-9.758 4.673c-3.659 1.375-6.242 4.772-6.242 9.327h20c0-4.555-2.583-7.952-6.242-9.327" id="profile-[#1336]" style="fill: rgb(255, 255, 255);"></path></g></g></g><metadata><rdf:rdf xmlns:rdf="http://www.w3.org/1999/02/22-rdf-syntax-ns#" xmlns:rdfs="http://www.w3.org/2000/01/rdf-schema#" xmlns:dc="http://purl.org/dc/elements/1.1/"><rdf:description about="https://iconscout.com/legal#licenses" dc:title="profile" dc:description="profile" dc:publisher="Iconscout" dc:date="2017-09-15" dc:format="image/svg+xml" dc:language="en"><dc:creator><rdf:bag><rdf:li>Alexandru Stoica</rdf:li></rdf:bag></dc:creator></rdf:description></rdf:rdf></metadata></svg>